<?xml version="1.0" standalone="no"?>
<!DOCTYPE svg PUBLIC "-//W3C//DTD SVG 20010904//EN"
 "http://www.w3.org/TR/2001/REC-SVG-20010904/DTD/svg10.dtd">
<svg version="1.0" xmlns="http://www.w3.org/2000/svg"
 width="1350.000000pt" height="584.000000pt" viewBox="0 0 1350.000000 584.000000"
 preserveAspectRatio="xMidYMid meet">

<g transform="translate(0.000000,584.000000) scale(0.100000,-0.100000)"
fill="#000000" stroke="none">
<path d="M0 2920 l0 -2920 2798 0 c1809 0 2792 4 2782 10 -12 8 -10 10 10 11
l25 1 -25 8 c-23 7 -22 8 10 9 26 1 31 4 20 11 -12 8 -10 10 10 11 l25 1 -25
8 c-23 7 -22 8 10 9 26 1 31 4 20 11 -12 8 -10 10 10 11 l25 1 -25 8 c-23 7
-22 8 10 9 26 1 31 4 20 11 -11 7 -7 10 20 11 l35 2 -35 7 -35 7 35 2 c27 1
31 4 20 11 -12 8 -10 10 10 11 l25 1 -25 8 c-23 7 -22 8 10 9 26 1 31 4 20 11
-12 8 -10 10 10 11 l25 1 -25 8 c-23 7 -22 8 10 9 26 1 31 4 20 11 -12 8 -10
10 10 11 l25 1 -25 8 c-23 7 -22 8 10 9 26 1 31 4 20 11 -12 8 -10 10 10 11
l25 1 -25 8 c-24 8 -24 8 -2 9 12 1 22 6 22 11 0 6 10 10 23 11 21 1 21 1 -3
9 -23 7 -22 8 10 9 26 1 31 4 20 11 -12 8 -10 10 10 11 l25 1 -25 8 c-14 4
296 8 688 9 789 1 758 -1 805 65 20 28 22 42 22 171 0 129 -2 143 -22 171 -46
65 -38 64 -595 65 -276 1 -492 4 -478 8 l25 8 -25 5 -25 5 25 2 c20 1 22 3 10
11 -11 7 -7 10 20 11 l35 2 -35 7 -35 7 35 2 c27 1 31 4 20 11 -12 8 -10 10
10 11 l25 1 -25 8 c-18 6 -20 8 -7 9 20 1 56 31 37 31 -19 0 17 30 37 31 13 1
11 3 -7 9 l-25 8 25 1 c20 1 22 3 10 11 -11 7 -7 10 20 11 l35 2 -35 7 -35 7
35 2 c27 1 31 4 20 11 -12 8 -10 10 10 11 l25 1 -25 8 c-18 6 -20 8 -7 9 20 1
56 31 37 31 -19 0 17 30 37 31 13 1 11 3 -7 9 l-25 8 25 1 c20 1 22 3 10 11
-12 8 -10 10 10 11 l25 1 -25 8 c-18 6 -20 8 -7 9 25 1 51 28 34 34 -6 3 -1 6
13 6 20 1 22 3 10 11 -12 8 -10 10 10 11 l25 1 -25 8 -25 8 25 1 c20 1 22 3
10 11 -12 8 -10 10 10 11 l25 1 -25 8 c-23 7 -22 8 10 9 26 1 31 4 20 11 -12
8 -10 10 10 11 l25 1 -25 8 -25 8 25 1 c20 1 22 3 10 11 -12 8 -10 10 10 11
l25 1 -25 8 -25 8 25 1 c20 1 22 3 10 11 -12 8 -10 10 10 11 l25 1 -25 8 c-18
6 -20 8 -7 9 25 1 51 28 34 34 -6 3 -1 6 13 6 20 1 22 3 10 11 -12 8 -10 10
10 11 l25 1 -25 8 -25 8 25 1 c20 1 22 3 10 11 -12 8 -10 10 10 11 l25 1 -25
7 -25 8 25 5 c14 3 -1341 6 -3011 7 l-3036 1 -42 23 c-24 12 -57 42 -75 66
l-31 43 -3 1486 c-2 1052 0 1498 8 1525 14 49 65 106 115 128 38 18 176 19
3528 19 3193 0 3491 -1 3520 -16 86 -44 117 -101 117 -219 0 -74 2 -85 18 -85
14 0 15 2 2 10 -13 9 -13 10 0 10 13 0 13 1 0 10 -13 9 -13 10 0 10 13 0 13 1
0 10 -12 8 -10 10 10 11 l25 1 -25 8 c-14 4 -18 9 -10 9 13 1 13 2 0 11 -12 8
-10 10 10 11 l25 1 -25 8 -25 8 25 1 c19 1 21 4 11 10 -11 7 -9 10 10 14 19 3
16 5 -11 7 -33 2 -33 3 -10 10 14 4 18 9 10 10 -8 1 -4 6 10 10 l25 8 -24 1
-24 1 23 20 23 20 -24 1 -24 1 25 8 c14 4 18 9 10 9 -13 1 -13 3 -1 10 11 7 9
10 -10 14 l-24 4 25 2 c20 1 22 3 10 11 -13 9 -13 10 0 10 13 0 13 1 0 10 -13
9 -13 10 0 10 13 0 13 1 0 10 -13 9 -13 10 0 10 13 0 13 1 0 10 -13 9 -13 10
0 10 13 0 13 1 0 10 -12 8 -10 10 10 11 l25 1 -25 8 c-14 4 -18 9 -10 9 13 1
13 2 0 11 -12 8 -10 10 10 11 l25 1 -25 8 -25 8 25 1 c20 1 22 3 10 11 -13 9
-13 10 0 11 8 0 4 5 -10 9 l-25 8 25 1 c20 1 22 3 10 11 -13 9 -13 10 0 11 8
0 4 5 -10 9 l-25 8 25 1 c20 1 22 3 10 11 -12 8 -10 10 10 11 l25 1 -25 8
c-14 4 -18 9 -10 9 13 1 13 3 1 10 -11 7 -9 10 10 14 l24 4 -24 2 -24 1 23 20
23 20 -24 1 -24 1 25 8 c14 4 18 9 10 9 -13 1 -13 2 0 11 12 8 10 10 -10 11
l-25 1 25 8 c14 4 18 9 10 9 -13 1 -13 2 0 11 12 8 10 10 -10 11 l-25 1 25 8
c14 4 18 9 10 9 -13 1 -13 2 0 11 13 9 13 10 0 10 -13 0 -13 1 0 10 13 9 13
10 0 10 -13 0 -13 1 0 10 13 9 13 10 0 10 -13 0 -13 1 0 10 13 9 13 10 0 10
-13 0 -13 1 0 10 13 9 13 10 0 10 -13 0 -13 1 0 10 13 9 13 10 0 11 -8 0 -4 5
10 9 l25 8 -25 1 c-20 1 -22 3 -10 11 13 9 13 10 0 11 -8 0 -4 5 10 9 l25 8
-25 1 c-20 1 -22 3 -10 11 13 9 13 10 0 11 -8 0 -4 5 10 9 l25 8 -25 1 c-20 1
-22 3 -10 11 13 9 13 10 0 11 -8 0 -4 5 10 9 l25 8 -25 1 c-20 1 -22 3 -10 11
13 9 13 10 0 11 -8 0 -4 5 10 9 l25 8 -25 1 c-20 1 -22 3 -10 11 13 9 13 10 0
11 -8 0 -4 5 10 9 l25 8 -25 1 c-20 1 -22 3 -10 11 13 9 13 10 0 11 -8 0 -4 5
10 9 l25 8 -25 1 c-20 1 -22 3 -10 11 13 9 13 10 0 11 -8 0 -4 5 10 9 l25 8
-24 1 -24 1 23 20 23 20 -24 0 c-17 0 -20 3 -10 9 11 7 11 9 0 14 -8 3 -3 6
11 7 l25 2 -25 8 c-14 4 -1835 8 -4047 9 l-4023 1 0 -2920z m7376 -2076 c19
-9 44 -31 57 -48 20 -28 22 -43 22 -161 0 -118 -2 -133 -22 -161 -49 -68 51
-64 -1418 -64 -1469 0 -1369 -4 -1418 64 -20 28 -22 43 -22 161 0 118 2 133
22 161 49 68 -53 64 1416 64 1206 0 1332 -2 1363 -16z m-5236 -144 c19 -19 27
-40 14 -40 -3 0 -17 9 -31 20 -23 18 -29 19 -47 7 -40 -27 -28 -107 16 -107
12 0 30 7 40 17 25 22 36 8 13 -17 -22 -24 -72 -26 -97 -3 -12 11 -18 30 -18
59 0 34 5 47 26 63 33 26 58 27 84 1z m148 8 c-6 -18 -28 -21 -28 -4 0 9 7 16
16 16 9 0 14 -5 12 -12z m727 -4 c-17 -13 -18 -16 -5 -25 11 -8 12 -12 3 -16
-8 -3 -13 -24 -13 -54 0 -37 -4 -49 -15 -49 -11 0 -15 12 -15 50 0 28 -4 50
-9 50 -5 0 -3 14 5 30 12 22 22 30 42 30 26 -1 26 -1 7 -16z m-533 -24 c19
-17 19 -20 5 -20 -24 0 -23 -68 1 -87 16 -12 15 -13 -8 -11 -22 3 -25 8 -28
48 -2 24 -8 48 -14 51 -7 5 -6 12 3 23 18 19 16 20 41 -4z m-232 -9 c0 -5 -9
-11 -20 -14 -16 -4 -20 -14 -20 -51 0 -34 -4 -46 -15 -46 -11 0 -15 13 -15 53
0 30 2 56 4 58 9 8 66 8 66 0z m40 -57 c0 -41 -4 -54 -15 -54 -11 0 -15 13
-15 53 0 30 3 57 6 60 15 15 24 -8 24 -59z m119 34 c23 -41 6 -82 -37 -86 -24
-2 -32 -8 -32 -23 0 -10 -7 -19 -15 -19 -12 0 -15 15 -15 73 0 41 2 76 4 78 3
3 22 4 43 4 30 0 40 -5 52 -27z m191 12 c39 -39 19 -100 -33 -100 -41 0 -57
15 -57 54 0 58 51 85 90 46z m140 -57 c0 -69 -2 -74 -25 -85 -28 -13 -81 4
-70 22 4 7 13 6 26 -1 15 -7 24 -7 35 2 22 18 17 26 -15 21 -21 -3 -33 2 -45
19 -34 49 -5 98 58 96 l36 -1 0 -73z m90 67 c0 -5 -9 -12 -20 -15 -16 -5 -20
-15 -20 -51 0 -24 -4 -44 -10 -44 -6 0 -10 26 -10 58 0 59 0 59 30 60 17 0 30
-3 30 -8z m94 -6 c10 -9 16 -33 16 -60 l0 -45 -47 3 c-44 3 -48 5 -48 28 0 20
7 27 33 35 17 5 32 12 32 16 0 15 -21 20 -35 9 -8 -6 -20 -8 -26 -4 -9 5 -7
11 6 21 25 17 50 17 69 -3z m187 6 c15 -8 19 -22 19 -60 l0 -50 -44 0 c-37 0
-46 4 -52 22 -7 24 17 48 48 48 10 0 18 7 18 15 0 18 -21 20 -38 3 -17 -17
-28 -2 -12 17 15 18 34 19 61 5z m109 1 c0 -5 -9 -11 -20 -14 -16 -4 -20 -14
-20 -51 0 -34 -4 -46 -15 -46 -11 0 -15 13 -15 53 0 30 2 56 4 58 9 8 66 8 66
0z"/>
<path d="M5840 710 c0 -5 5 -10 11 -10 5 0 7 5 4 10 -3 6 -8 10 -11 10 -2 0
-4 -4 -4 -10z"/>
<path d="M6563 713 c-7 -2 -13 -13 -13 -24 0 -10 -6 -19 -12 -19 -10 0 -10 -2
-1 -8 6 -4 13 -30 16 -57 l3 -50 2 52 c2 40 6 53 20 56 16 4 16 5 0 6 -10 0
-18 6 -18 12 0 7 8 18 18 25 17 13 9 17 -15 7z"/>
<path d="M5260 635 l0 -75 34 0 c48 0 86 33 86 76 0 47 -29 74 -80 74 l-40 0
0 -75z m83 53 c9 -7 19 -25 22 -40 5 -21 1 -33 -19 -52 -14 -15 -34 -26 -46
-26 -18 0 -20 6 -20 65 0 61 1 65 23 65 13 0 31 -6 40 -12z"/>
<path d="M6019 683 c-4 -69 11 -123 33 -123 9 0 9 3 0 12 -16 16 -15 85 1 91
10 4 10 6 0 6 -7 1 -13 8 -13 16 0 21 -20 19 -21 -2z"/>
<path d="M5422 658 c-7 -7 -12 -26 -12 -43 0 -17 5 -36 12 -43 17 -17 53 -15
68 4 12 13 10 14 -13 3 -21 -9 -30 -9 -42 1 -25 21 -17 30 25 30 32 0 40 4 40
18 0 24 -19 42 -45 42 -12 0 -26 -5 -33 -12z m63 -18 c0 -10 -12 -16 -32 -18
-35 -3 -41 6 -21 26 17 17 53 11 53 -8z"/>
<path d="M5536 654 c-8 -21 9 -42 36 -46 12 -2 23 -9 26 -15 6 -19 -28 -28
-49 -14 -11 6 -19 7 -19 1 0 -12 45 -24 65 -16 27 10 18 46 -15 57 -41 15 -41
44 0 35 19 -3 29 -2 25 4 -10 16 -62 12 -69 -6z"/>
<path d="M5652 658 c-15 -15 -16 -52 -2 -79 13 -23 52 -25 70 -4 15 18 7 19
-21 3 -17 -11 -22 -10 -35 7 -31 41 5 93 47 67 18 -11 20 -11 17 0 -6 17 -60
22 -76 6z"/>
<path d="M5760 615 c0 -30 5 -55 10 -55 6 0 10 20 10 45 0 38 4 47 23 55 20 8
19 9 -10 9 l-33 1 0 -55z"/>
<path d="M5843 615 c0 -33 2 -45 4 -27 2 18 2 45 0 60 -2 15 -4 0 -4 -33z"/>
<path d="M5892 591 c0 -42 3 -62 5 -44 4 28 6 31 22 21 40 -24 80 27 61 77 -9
22 -15 26 -50 23 l-40 -2 2 -75z m76 33 c6 -56 -50 -73 -64 -19 -8 31 12 57
40 53 15 -2 22 -11 24 -34z"/>
<path d="M6102 658 c-17 -17 -15 -73 2 -88 41 -33 97 20 77 73 -8 20 -17 27
-39 27 -15 0 -33 -5 -40 -12z m63 -37 c0 -41 -25 -62 -49 -42 -33 27 -12 85
29 79 16 -2 20 -11 20 -37z"/>
<path d="M6220 649 c-24 -44 21 -107 56 -78 19 16 31 3 17 -19 -7 -11 -22 -16
-42 -16 -17 1 -28 -2 -25 -7 8 -13 58 -11 72 3 7 7 12 39 12 72 l0 61 -40 3
c-31 2 -41 -2 -50 -19z m70 -9 c15 -28 -4 -62 -33 -58 -22 3 -34 35 -23 64 8
21 44 17 56 -6z"/>
<path d="M6340 613 c0 -29 5 -53 10 -53 6 0 10 20 10 45 0 38 4 47 23 54 19 8
18 9 -10 9 l-33 -1 0 -54z"/>
<path d="M6425 661 c-3 -6 9 -7 30 -4 47 8 50 -23 3 -35 -26 -6 -33 -14 -33
-33 0 -21 5 -24 43 -25 l42 -2 0 42 c0 23 -5 47 -12 54 -14 14 -64 16 -73 3z
m53 -82 c-19 -13 -43 -6 -43 11 0 20 49 31 53 12 2 -8 -2 -19 -10 -23z"/>
<path d="M6615 661 c-3 -6 9 -7 30 -4 47 8 50 -23 3 -35 -26 -6 -33 -14 -33
-33 0 -21 5 -24 43 -25 l42 -2 0 42 c0 23 -5 47 -12 54 -14 14 -64 16 -73 3z
m53 -82 c-19 -13 -43 -6 -43 11 0 20 49 31 53 12 2 -8 -2 -19 -10 -23z"/>
<path d="M6730 615 c0 -30 5 -55 10 -55 6 0 10 20 10 45 0 38 4 47 23 55 20 8
19 9 -10 9 l-33 1 0 -55z"/>
<path d="M2344 646 c-11 -28 1 -61 22 -64 25 -4 39 31 23 60 -12 21 -37 24
-45 4z"/>
<path d="M2540 640 c-16 -30 -3 -62 23 -58 38 5 33 77 -5 78 -4 0 -12 -9 -18
-20z"/>
<path d="M2673 653 c-19 -7 -16 -62 3 -70 8 -3 23 1 32 10 13 13 13 21 4 42
-12 25 -17 28 -39 18z"/>
<path d="M2867 603 c-14 -13 -6 -23 18 -23 16 0 25 6 25 15 0 15 -31 21 -43 8z"/>
<path d="M3067 603 c-13 -12 -7 -23 12 -23 10 0 21 7 25 15 5 15 -24 22 -37 8z"/>
<path d="M960 4761 c0 -6 5 -13 10 -16 6 -3 10 1 10 9 0 9 -4 16 -10 16 -5 0
-10 -4 -10 -9z"/>
<path d="M1166 4761 c-4 -5 -2 -12 3 -15 5 -4 12 -2 15 3 4 5 2 12 -3 15 -5 4
-12 2 -15 -3z"/>
<path d="M3060 4754 c0 -8 5 -12 10 -9 6 3 10 10 10 16 0 5 -4 9 -10 9 -5 0
-10 -7 -10 -16z"/>
<path d="M790 4675 l0 -85 35 0 c51 0 83 19 95 56 23 68 -11 114 -82 114 l-48
0 0 -85z m100 55 c43 -43 14 -120 -46 -120 l-34 0 0 70 0 70 30 0 c17 0 39 -9
50 -20z"/>
<path d="M1230 4736 c0 -8 -6 -17 -12 -19 -10 -4 -10 -6 0 -6 8 -1 12 -18 12
-49 0 -26 5 -53 12 -60 15 -15 38 -16 38 -2 0 6 -7 10 -15 10 -23 0 -21 97 3
103 16 4 16 5 0 6 -10 0 -18 8 -18 16 0 8 -4 15 -10 15 -5 0 -10 -6 -10 -14z"/>
<path d="M2001 4738 c0 -10 -6 -18 -13 -18 -9 0 -9 -3 0 -12 7 -7 12 -34 12
-60 0 -35 4 -50 15 -55 23 -8 33 7 12 18 -24 14 -24 84 1 98 15 9 15 10 0 11
-9 0 -19 8 -21 18 -4 16 -5 16 -6 0z"/>
<path d="M2350 4735 c0 -8 -5 -15 -11 -15 -8 0 -8 -4 -1 -13 6 -7 12 -35 14
-62 3 -45 6 -50 28 -53 23 -2 24 -1 8 11 -21 17 -25 102 -5 110 10 4 10 6 0 6
-7 1 -13 8 -13 16 0 8 -4 15 -10 15 -5 0 -10 -7 -10 -15z"/>
<path d="M960 4655 c0 -37 4 -65 10 -65 6 0 10 28 10 65 0 37 -4 65 -10 65 -6
0 -10 -28 -10 -65z"/>
<path d="M1032 4708 c-10 -13 -15 -39 -13 -70 2 -28 45 -52 70 -38 18 9 21 8
21 -9 0 -27 -34 -45 -59 -31 -28 14 -36 12 -21 -5 17 -21 63 -19 83 3 13 14
17 38 17 90 0 41 -4 72 -10 72 -11 0 -12 -5 -14 -59 -1 -40 -27 -62 -53 -45
-41 26 -15 102 29 88 14 -4 18 -2 14 5 -10 15 -51 14 -64 -1z"/>
<path d="M1173 4655 c0 -38 2 -53 4 -32 2 20 2 52 0 70 -2 17 -4 1 -4 -38z"/>
<path d="M1326 4704 c-16 -16 -20 -32 -16 -69 3 -42 65 -61 91 -28 15 18 15
18 -35 -3 -14 -5 -46 20 -46 37 0 5 23 9 51 9 48 0 50 1 43 23 -3 12 -11 28
-16 35 -14 17 -53 15 -72 -4z m59 -7 c24 -18 11 -37 -25 -37 -36 0 -45 13 -24
34 19 19 25 20 49 3z"/>
<path d="M1533 4713 c-7 -2 -13 -15 -13 -28 0 -18 8 -26 35 -35 37 -12 46 -34
19 -44 -8 -3 -25 -1 -36 5 -16 9 -19 8 -16 -3 7 -19 62 -22 77 -4 19 23 7 43
-35 61 -36 15 -37 17 -21 33 14 14 21 14 37 4 27 -16 35 -15 20 3 -12 15 -43
18 -67 8z"/>
<path d="M1657 4702 c-23 -25 -21 -75 2 -96 22 -20 72 -18 79 2 3 11 0 12 -17
3 -24 -13 -55 -2 -65 24 -4 12 4 15 44 15 42 0 50 3 50 18 0 24 -31 52 -57 52
-11 0 -27 -8 -36 -18z m73 -27 c0 -10 -11 -15 -35 -15 -38 0 -48 22 -18 39 21
11 53 -3 53 -24z"/>
<path d="M1780 4681 c0 -60 15 -91 44 -91 14 0 28 5 32 11 4 8 9 7 15 -2 5 -9
8 14 7 56 -1 66 -1 67 -7 21 -6 -51 -26 -74 -55 -63 -12 5 -16 19 -16 57 0 27
-4 50 -10 50 -5 0 -10 -18 -10 -39z"/>
<path d="M2086 4698 c-32 -46 -7 -108 43 -108 16 0 34 7 41 15 15 17 7 19 -21
5 -23 -13 -59 3 -59 25 0 11 12 15 45 15 38 0 45 3 45 19 0 48 -67 68 -94 29z
m62 0 c23 -23 13 -38 -23 -38 -39 0 -48 21 -17 39 22 13 26 13 40 -1z"/>
<path d="M2212 4713 c2 -5 10 -20 17 -35 12 -24 12 -31 -3 -53 -10 -15 -15
-29 -13 -32 3 -2 13 7 23 22 l17 26 24 -28 c25 -29 26 -26 4 19 -12 24 -12 31
3 52 24 38 19 45 -9 12 l-24 -30 -12 27 c-7 15 -16 27 -21 27 -6 0 -8 -3 -6
-7z"/>
<path d="M2436 4698 c-41 -58 15 -136 71 -100 32 20 32 94 0 114 -23 15 -56 8
-71 -14z m66 -5 c39 -35 3 -107 -41 -83 -27 14 -29 74 -3 89 23 14 23 14 44
-6z"/>
<path d="M2650 4710 c-22 -14 -5 -23 20 -10 16 9 25 9 36 -1 22 -18 17 -28
-21 -35 -45 -8 -60 -26 -45 -54 9 -16 19 -20 50 -18 l40 3 0 56 c0 43 -4 58
-16 63 -22 9 -47 7 -64 -4z m70 -75 c0 -18 -34 -37 -54 -29 -16 6 -21 26 -9
37 13 14 63 7 63 -8z"/>
<path d="M2786 4704 c-9 -8 -16 -31 -16 -49 0 -53 47 -84 78 -53 9 9 12 4 12
-25 0 -20 5 -37 10 -37 6 0 10 37 10 90 0 53 -4 90 -10 90 -5 0 -10 -5 -10
-12 0 -9 -3 -9 -12 0 -17 17 -44 15 -62 -4z m74 -49 c0 -43 -33 -67 -57 -42
-36 36 -4 109 38 86 13 -6 19 -21 19 -44z"/>
<path d="M2922 4664 c3 -66 23 -88 58 -66 12 7 20 8 20 2 0 -5 5 -10 10 -10 6
0 10 28 10 65 0 78 -18 88 -22 13 -3 -49 -5 -53 -30 -56 -28 -3 -28 -2 -28 52
0 33 -4 56 -10 56 -7 0 -10 -22 -8 -56z"/>
<path d="M3060 4655 c0 -37 4 -65 10 -65 6 0 10 28 10 65 0 37 -4 65 -10 65
-6 0 -10 -28 -10 -65z"/>
<path d="M11385 4710 c-4 -6 -3 -16 3 -22 6 -6 12 -6 17 2 4 6 3 16 -3 22 -6
6 -12 6 -17 -2z"/>
<path d="M3120 4605 c0 -8 5 -15 10 -15 6 0 10 7 10 15 0 8 -4 15 -10 15 -5 0
-10 -7 -10 -15z"/>
<path d="M3185 4609 c-10 -15 3 -25 16 -12 7 7 7 13 1 17 -6 3 -14 1 -17 -5z"/>
<path d="M3250 4605 c0 -9 5 -15 11 -13 6 2 11 8 11 13 0 5 -5 11 -11 13 -6 2
-11 -4 -11 -13z"/>
<path d="M7960 4575 c0 -8 8 -15 18 -15 13 0 14 2 3 9 -11 7 -11 9 0 14 10 4
9 6 -3 6 -10 1 -18 -6 -18 -14z"/>
<path d="M11176 4537 c-7 -31 -60 -69 -91 -65 -16 3 -19 9 -17 37 l4 34 -34
-32 c-42 -41 -89 -65 -161 -84 -76 -20 -103 -39 -118 -82 -11 -30 -17 -35 -46
-35 -111 0 -191 -115 -149 -214 9 -21 13 -42 10 -47 -3 -5 1 -6 9 -3 8 3 20
-3 28 -12 11 -14 11 -18 -6 -30 -10 -8 -14 -14 -8 -14 7 0 15 5 18 10 4 6 28
7 61 4 103 -12 172 34 189 127 7 38 -12 98 -42 131 -15 17 -14 19 20 33 58 24
96 19 155 -21 29 -19 55 -41 57 -47 2 -7 9 -30 14 -53 11 -40 12 -41 53 -40
41 1 43 -1 46 -29 3 -39 -27 -77 -61 -77 -21 0 -30 -10 -53 -55 -18 -37 -41
-65 -71 -86 -24 -18 -39 -33 -33 -35 19 -7 60 28 90 74 l29 46 4 -34 c4 -31 4
-30 5 8 2 38 5 42 51 64 27 12 69 43 93 67 42 43 43 46 40 102 -1 41 4 72 18
102 26 58 26 73 0 57 -30 -19 -46 2 -31 43 6 17 11 41 11 52 0 20 0 20 -20 -1
-40 -43 -67 -24 -51 35 6 22 7 51 3 68 l-9 30 -7 -28z m-452 -253 c18 -7 21
-35 7 -49 -7 -6 -1 -10 14 -10 12 0 22 2 20 5 -5 9 22 28 32 22 40 -28 55
-105 31 -158 l-13 -28 -6 30 c-6 27 -7 27 -8 -9 -1 -33 -5 -40 -33 -52 l-33
-13 -5 56 c-3 39 -1 60 7 67 9 7 10 15 3 25 -8 13 -10 13 -10 -1 0 -9 -18 -28
-40 -43 -22 -14 -40 -29 -40 -32 0 -3 13 4 29 15 16 12 32 21 35 21 3 0 6 -25
6 -55 0 -62 -6 -65 -65 -41 -86 36 -102 173 -27 222 14 9 37 20 51 24 14 5 27
9 28 9 1 1 8 -2 17 -5z"/>
<path d="M10735 4210 c-3 -5 -1 -10 4 -10 6 0 11 5 11 10 0 6 -2 10 -4 10 -3
0 -8 -4 -11 -10z"/>
<path d="M10757 4173 c-2 -5 0 -21 4 -38 7 -29 7 -29 8 8 1 35 -3 46 -12 30z"/>
<path d="M10811 4164 c0 -11 3 -14 6 -6 3 7 2 16 -1 19 -3 4 -6 -2 -5 -13z"/>
<path d="M10630 4150 c-9 -6 -10 -10 -3 -10 6 0 15 5 18 10 8 12 4 12 -15 0z"/>
<path d="M7968 4543 c7 -3 16 -2 19 1 4 3 -2 6 -13 5 -11 0 -14 -3 -6 -6z"/>
<path d="M7968 4503 c7 -3 16 -2 19 1 4 3 -2 6 -13 5 -11 0 -14 -3 -6 -6z"/>
<path d="M10232 4450 c0 -14 2 -19 5 -12 2 6 2 18 0 25 -3 6 -5 1 -5 -13z"/>
<path d="M10305 4435 c-22 -19 -35 -34 -29 -35 5 0 25 16 44 35 43 45 36 45
-15 0z"/>
<path d="M9383 4413 c-7 -3 -13 -13 -13 -24 0 -14 7 -19 25 -19 18 0 25 5 25
19 0 20 -17 31 -37 24z"/>
<path d="M10373 4363 c9 -2 25 -2 35 0 9 3 1 5 -18 5 -19 0 -27 -2 -17 -5z"/>
<path d="M9964 4262 c-12 -8 -54 -86 -54 -99 1 -4 12 14 26 40 20 38 29 47 44
43 11 -4 29 -8 39 -11 11 -3 22 -14 24 -23 4 -16 5 -16 6 1 1 15 12 17 91 17
89 0 90 0 90 -25 0 -14 3 -25 8 -25 4 0 7 14 7 30 l0 30 -110 1 c-60 1 -121 5
-135 9 -15 5 42 8 141 9 122 1 169 -2 176 -11 14 -19 45 -100 39 -105 -2 -2
-23 5 -46 17 -23 12 -44 20 -46 17 -2 -2 19 -14 46 -27 28 -13 50 -27 50 -32
0 -4 -42 -75 -92 -156 -89 -141 -93 -146 -100 -117 -6 24 -7 22 -3 -10 4 -35
3 -38 -9 -22 -8 10 -16 14 -17 8 -3 -8 -204 254 -230 299 -4 8 -10 12 -13 9
-7 -7 244 -341 259 -345 6 -2 58 74 117 168 l107 171 -25 66 c-14 36 -30 69
-37 73 -15 10 -338 10 -353 0z"/>
<path d="M10913 4250 c16 -5 34 -12 41 -17 6 -4 3 0 -7 10 -11 9 -29 17 -41
16 -17 -1 -16 -2 7 -9z"/>
<path d="M10268 4243 c6 -2 18 -2 25 0 6 3 1 5 -13 5 -14 0 -19 -2 -12 -5z"/>
<path d="M10093 4183 c26 -2 67 -2 90 0 23 2 2 3 -48 3 -49 0 -68 -1 -42 -3z"/>
<path d="M9940 4145 c-14 -8 -20 -14 -15 -14 6 0 21 6 35 14 14 8 21 14 15 14
-5 0 -21 -6 -35 -14z"/>
<path d="M10061 4144 c0 -11 3 -14 6 -6 3 7 2 16 -1 19 -3 4 -6 -2 -5 -13z"/>
<path d="M10221 4144 c0 -11 3 -14 6 -6 3 7 2 16 -1 19 -3 4 -6 -2 -5 -13z"/>
<path d="M10071 4104 c0 -11 3 -14 6 -6 3 7 2 16 -1 19 -3 4 -6 -2 -5 -13z"/>
<path d="M10211 4104 c0 -11 3 -14 6 -6 3 7 2 16 -1 19 -3 4 -6 -2 -5 -13z"/>
<path d="M10081 4064 c0 -11 3 -14 6 -6 3 7 2 16 -1 19 -3 4 -6 -2 -5 -13z"/>
<path d="M10202 4060 c0 -14 2 -19 5 -12 2 6 2 18 0 25 -3 6 -5 1 -5 -13z"/>
<path d="M10091 4030 c0 -8 8 -46 18 -85 11 -38 19 -63 20 -55 0 8 -8 47 -18
85 -11 39 -19 63 -20 55z"/>
<path d="M10496 4031 c-3 -4 3 -16 14 -26 20 -19 28 -41 10 -30 -6 3 -7 -1 -4
-9 3 -9 -2 -23 -11 -32 -14 -15 -20 -16 -39 -5 -20 13 -20 13 -3 -5 20 -21 44
-12 63 24 6 12 14 19 18 15 4 -4 4 0 1 8 -3 9 -1 28 5 43 6 17 6 25 0 21 -6
-3 -10 -13 -10 -21 0 -8 -4 -14 -9 -14 -13 0 -32 26 -24 33 3 4 4 7 0 7 -3 0
-8 -4 -11 -9z"/>
<path d="M10192 4010 c0 -14 2 -19 5 -12 2 6 2 18 0 25 -3 6 -5 1 -5 -13z"/>
<path d="M10456 3988 l-18 -33 21 25 c18 22 26 40 18 40 -1 0 -11 -15 -21 -32z"/>
<path d="M10814 3986 c-3 -8 -4 -23 -1 -33 3 -12 5 -8 6 10 0 15 6 27 11 27
15 0 12 -57 -2 -63 -8 -3 -5 -6 5 -6 15 -1 18 6 15 36 -3 38 -24 56 -34 29z"/>
<path d="M10182 3960 c0 -14 2 -19 5 -12 2 6 2 18 0 25 -3 6 -5 1 -5 -13z"/>
<path d="M10470 3976 c0 -2 8 -10 18 -17 15 -13 16 -12 3 4 -13 16 -21 21 -21
13z"/>
<path d="M10612 3960 c0 -14 2 -19 5 -12 2 6 2 18 0 25 -3 6 -5 1 -5 -13z"/>
<path d="M10556 3943 c-6 -14 -5 -15 5 -6 7 7 10 15 7 18 -3 3 -9 -2 -12 -12z"/>
<path d="M10430 3924 c0 -11 -11 -31 -25 -44 -29 -28 -31 -43 -7 -61 14 -11
15 -11 5 1 -7 8 -13 21 -13 29 0 11 5 10 23 -5 22 -18 22 -18 5 1 -17 18 -17
20 7 45 17 18 22 29 15 40 -8 12 -10 11 -10 -6z"/>
<path d="M10172 3910 c0 -14 2 -19 5 -12 2 6 2 18 0 25 -3 6 -5 1 -5 -13z"/>
<path d="M10750 3921 c0 -6 4 -13 10 -16 6 -3 7 1 4 9 -7 18 -14 21 -14 7z"/>
<path d="M10519 3893 l-24 -28 28 24 c15 14 27 26 27 28 0 8 -8 1 -31 -24z"/>
<path d="M10790 3865 c13 -14 26 -25 28 -25 3 0 -5 11 -18 25 -13 14 -26 25
-28 25 -3 0 5 -11 18 -25z"/>
<path d="M10131 3854 c0 -11 3 -14 6 -6 3 7 2 16 -1 19 -3 4 -6 -2 -5 -13z"/>
<path d="M11086 3846 c4 -27 -31 -72 -65 -84 -28 -10 -30 -9 -42 32 l-12 43
-76 -37 c-42 -21 -87 -50 -101 -65 -14 -16 -19 -25 -12 -21 9 6 12 -13 12 -78
0 -92 9 -148 45 -271 23 -77 38 -147 49 -227 4 -31 2 -38 -12 -39 -9 0 8 -7
38 -14 53 -13 57 -12 105 13 27 15 84 59 127 97 l78 70 -4 190 c-2 104 1 204
6 222 12 44 48 54 90 23 27 -20 29 -20 19 -3 -29 55 -163 143 -217 143 -12 0
-24 6 -27 13 -2 6 -3 3 -1 -7z"/>
<path d="M10584 3846 c-3 -8 -4 -25 -2 -38 3 -17 5 -13 9 15 5 38 2 47 -7 23z"/>
<path d="M10441 3829 c-13 -10 -19 -19 -13 -19 5 0 15 7 22 15 15 19 37 5 43
-28 4 -21 4 -21 6 -1 0 11 -7 28 -16 37 -16 14 -20 14 -42 -4z"/>
<path d="M10878 3833 c7 -3 16 -2 19 1 4 3 -2 6 -13 5 -11 0 -14 -3 -6 -6z"/>
<path d="M11613 3784 c-8 -22 18 -37 36 -20 7 8 10 19 7 25 -10 16 -36 13 -43
-5z"/>
<path d="M10482 3720 c0 -19 2 -27 5 -17 2 9 2 25 0 35 -3 9 -5 1 -5 -18z"/>
<path d="M10592 3705 c0 -16 2 -22 5 -12 2 9 2 23 0 30 -3 6 -5 -1 -5 -18z"/>
<path d="M10706 3613 c-20 -32 -27 -46 -14 -31 26 30 62 88 55 88 -2 0 -21
-26 -41 -57z"/>
<path d="M10602 3610 c0 -19 2 -27 5 -17 2 9 2 25 0 35 -3 9 -5 1 -5 -18z"/>
<path d="M10473 3590 c0 -25 2 -35 4 -22 2 12 2 32 0 45 -2 12 -4 2 -4 -23z"/>
<path d="M11352 3605 c0 -16 2 -22 5 -12 2 9 2 23 0 30 -3 6 -5 -1 -5 -18z"/>
<path d="M9393 3544 c-6 -17 6 -45 23 -51 21 -7 47 23 40 45 -9 27 -53 30 -63
6z"/>
<path d="M10645 3530 c-10 -11 -22 -17 -26 -14 -5 3 -9 -7 -8 -23 0 -15 3 -21
6 -13 3 8 17 27 31 43 14 15 23 27 20 27 -3 0 -13 -9 -23 -20z"/>
<path d="M11364 3415 c0 -66 1 -92 3 -57 2 34 2 88 0 120 -2 31 -3 3 -3 -63z"/>
<path d="M10482 3440 c0 -14 2 -19 5 -12 2 6 2 18 0 25 -3 6 -5 1 -5 -13z"/>
<path d="M10735 3408 l-40 -43 43 40 c39 36 47 45 39 45 -2 0 -21 -19 -42 -42z"/>
<path d="M10356 3401 c-4 -5 -2 -12 3 -15 5 -4 12 -2 15 3 4 5 2 12 -3 15 -5
4 -12 2 -15 -3z"/>
<path d="M10490 3393 c0 -7 10 -22 23 -35 12 -13 17 -17 11 -8 -6 8 -16 24
-22 35 -6 11 -12 15 -12 8z"/>
<path d="M10640 3340 c-9 -6 -10 -10 -3 -10 6 0 15 5 18 10 8 12 4 12 -15 0z"/>
<path d="M10598 3323 c7 -3 16 -2 19 1 4 3 -2 6 -13 5 -11 0 -14 -3 -6 -6z"/>
<path d="M11871 3276 c-9 -10 -8 -16 3 -25 10 -9 16 -8 25 3 9 10 8 16 -3 25
-10 9 -16 8 -25 -3z"/>
<path d="M11351 3234 c0 -11 3 -14 6 -6 3 7 2 16 -1 19 -3 4 -6 -2 -5 -13z"/>
<path d="M11330 3181 c-18 -45 -133 -113 -270 -161 -36 -13 -68 -26 -72 -29
-13 -11 176 -2 222 10 25 7 62 20 82 30 l37 19 4 -48 c2 -26 4 0 4 58 0 58 3
115 7 128 11 32 1 27 -14 -7z"/>
<path d="M9550 3191 c0 -6 4 -13 10 -16 6 -3 7 1 4 9 -7 18 -14 21 -14 7z"/>
<path d="M10825 3100 c-3 -6 1 -7 9 -4 18 7 21 14 7 14 -6 0 -13 -4 -16 -10z"/>
<path d="M10506 3005 c-3 -9 1 -18 10 -22 19 -7 39 11 30 26 -10 16 -33 13
-40 -4z"/>
<path d="M10803 2961 c-265 -207 -387 -342 -370 -408 3 -13 5 -10 6 7 3 54 55
124 171 227 82 73 120 101 133 97 10 -3 17 -2 16 3 -4 21 2 34 13 27 7 -5 8
-3 3 6 -5 9 -2 10 12 6 13 -4 26 1 40 16 19 21 47 68 41 68 -2 0 -31 -22 -65
-49z m22 -11 c-10 -11 -23 -20 -28 -20 -6 0 -2 9 8 20 10 11 23 20 28 20 6 0
2 -9 -8 -20z"/>
<path d="M9607 2963 c-4 -3 -7 -11 -7 -17 0 -6 5 -5 12 2 6 6 9 14 7 17 -3 3
-9 2 -12 -2z"/>
<path d="M10911 2926 c-27 -28 -39 -46 -32 -51 7 -4 10 -1 9 7 -2 7 3 12 9 11
7 -2 20 8 29 22 9 14 23 25 30 25 16 0 18 -11 4 -28 -5 -7 -2 -5 8 4 16 14 16
16 0 28 -10 7 -15 16 -11 19 3 4 4 7 2 7 -3 0 -24 -20 -48 -44z"/>
<path d="M9722 2947 c-7 -8 -7 -19 2 -35 12 -23 13 -22 12 12 -1 41 0 40 -14
23z"/>
<path d="M10850 2920 c-14 -11 -37 -22 -52 -25 -16 -4 -28 -10 -28 -15 0 -10
31 -22 38 -15 3 3 0 5 -7 5 -7 0 -9 5 -6 10 3 6 14 10 24 10 10 0 28 11 41 25
28 30 24 32 -10 5z"/>
<path d="M11322 2900 c0 -14 2 -19 5 -12 2 6 2 18 0 25 -3 6 -5 1 -5 -13z"/>
<path d="M9988 2903 c6 -2 18 -2 25 0 6 3 1 5 -13 5 -14 0 -19 -2 -12 -5z"/>
<path d="M9690 2895 c1 -6 7 -21 16 -35 l15 -25 -7 25 c-7 26 -24 52 -24 35z"/>
<path d="M10865 2834 l-70 -66 73 63 c66 58 77 69 69 69 -2 0 -34 -30 -72 -66z"/>
<path d="M9200 2855 c0 -9 5 -15 11 -13 6 2 11 8 11 13 0 5 -5 11 -11 13 -6 2
-11 -4 -11 -13z"/>
<path d="M11311 2844 c0 -11 3 -14 6 -6 3 7 2 16 -1 19 -3 4 -6 -2 -5 -13z"/>
<path d="M10578 2843 c6 -2 18 -2 25 0 6 3 1 5 -13 5 -14 0 -19 -2 -12 -5z"/>
<path d="M11361 2813 c-43 -57 -43 -57 -58 -37 -7 10 -13 12 -13 5 0 -6 -21
-35 -47 -64 -44 -48 -44 -49 -6 -14 35 33 44 37 61 28 12 -6 29 -25 39 -41 20
-35 33 -37 57 -11 13 14 35 20 91 23 55 4 89 12 132 34 84 42 77 57 -27 67
-47 4 -108 14 -137 22 -67 20 -68 20 -92 -12z"/>
<path d="M9675 2770 c3 -5 11 -10 16 -10 6 0 7 5 4 10 -3 6 -11 10 -16 10 -6
0 -7 -4 -4 -10z"/>
<path d="M11738 2773 c6 -2 18 -2 25 0 6 3 1 5 -13 5 -14 0 -19 -2 -12 -5z"/>
<path d="M9620 2759 c0 -5 5 -7 10 -4 6 3 10 8 10 11 0 2 -4 4 -10 4 -5 0 -10
-5 -10 -11z"/>
<path d="M11828 2763 c7 -3 16 -2 19 1 4 3 -2 6 -13 5 -11 0 -14 -3 -6 -6z"/>
<path d="M10744 2718 l-29 -33 33 29 c30 28 37 36 29 36 -2 0 -16 -15 -33 -32z"/>
<path d="M11765 2720 c-3 -5 -1 -10 4 -10 6 0 11 5 11 10 0 6 -2 10 -4 10 -3
0 -8 -4 -11 -10z"/>
<path d="M10692 2657 c-20 -23 -62 -122 -61 -142 1 -15 3 -12 9 8 5 16 22 55
40 88 30 57 34 72 12 46z"/>
<path d="M11154 2638 l-19 -23 23 19 c21 18 27 26 19 26 -2 0 -12 -10 -23 -22z"/>
<path d="M11358 2633 c-8 -28 -94 -94 -235 -180 -224 -135 -282 -159 -365
-151 -29 3 -44 2 -36 -3 47 -30 166 4 313 90 55 33 113 63 128 66 15 4 24 11
21 16 -3 6 6 7 23 4 19 -3 22 -3 10 3 -16 7 -10 13 35 44 68 47 122 102 116
119 -3 8 -7 5 -10 -8z"/>
<path d="M10298 2633 c7 -3 16 -2 19 1 4 3 -2 6 -13 5 -11 0 -14 -3 -6 -6z"/>
<path d="M11683 2623 c-10 -10 -14 -15 -8 -11 7 4 14 5 17 2 3 -2 8 2 11 11 8
19 4 19 -20 -2z"/>
<path d="M11745 2609 c-4 -6 -5 -12 -2 -15 2 -3 7 2 10 11 7 17 1 20 -8 4z"/>
<path d="M9618 2603 c7 -3 16 -2 19 1 4 3 -2 6 -13 5 -11 0 -14 -3 -6 -6z"/>
<path d="M11089 2583 l-24 -28 28 24 c15 14 27 26 27 28 0 8 -8 1 -31 -24z"/>
<path d="M11716 2593 c-6 -14 -5 -15 5 -6 7 7 10 15 7 18 -3 3 -9 -2 -12 -12z"/>
<path d="M10020 2581 c0 -11 4 -22 9 -25 4 -3 6 6 3 19 -5 30 -12 33 -12 6z"/>
<path d="M10003 2555 c0 -22 2 -30 4 -17 2 12 2 30 0 40 -3 9 -5 -1 -4 -23z"/>
<path d="M11029 2533 l-24 -28 28 24 c15 14 27 26 27 28 0 8 -8 1 -31 -24z"/>
<path d="M10422 2510 c0 -14 2 -19 5 -12 2 6 2 18 0 25 -3 6 -5 1 -5 -13z"/>
<path d="M10011 2484 c0 -11 3 -14 6 -6 3 7 2 16 -1 19 -3 4 -6 -2 -5 -13z"/>
<path d="M11591 2484 c0 -11 3 -14 6 -6 3 7 2 16 -1 19 -3 4 -6 -2 -5 -13z"/>
<path d="M10625 2436 c2 -32 9 -64 15 -70 8 -8 9 -6 4 7 -3 9 -10 41 -15 70
l-8 52 4 -59z"/>
<path d="M11303 2483 c26 -2 68 -2 95 0 26 2 4 3 -48 3 -52 0 -74 -1 -47 -3z"/>
<path d="M10431 2458 c-1 -17 10 -40 28 -60 26 -29 34 -32 97 -34 l69 -2 -68
7 c-77 9 -104 28 -117 82 -7 32 -8 32 -9 7z"/>
<path d="M11518 2473 c12 -2 30 -2 40 0 9 3 -1 5 -23 4 -22 0 -30 -2 -17 -4z"/>
<path d="M10153 2449 c11 -17 14 -16 20 7 1 4 -6 8 -15 10 -14 2 -15 -1 -5
-17z"/>
<path d="M11643 2463 c9 -2 23 -2 30 0 6 3 -1 5 -18 5 -16 0 -22 -2 -12 -5z"/>
<path d="M10141 2384 c0 -11 3 -14 6 -6 3 7 2 16 -1 19 -3 4 -6 -2 -5 -13z"/>
<path d="M10047 2372 c3 -12 9 -25 14 -28 14 -8 11 10 -6 32 -13 18 -14 18 -8
-4z"/>
<path d="M9408 2353 c7 -3 16 -2 19 1 4 3 -2 6 -13 5 -11 0 -14 -3 -6 -6z"/>
<path d="M9513 2353 c9 -2 23 -2 30 0 6 3 -1 5 -18 5 -16 0 -22 -2 -12 -5z"/>
<path d="M9293 2320 c-35 -16 -63 -31 -63 -34 0 -3 28 8 63 23 34 16 69 31 77
34 13 5 13 5 0 6 -8 0 -43 -13 -77 -29z"/>
<path d="M9568 2343 c6 -2 18 -2 25 0 6 3 1 5 -13 5 -14 0 -19 -2 -12 -5z"/>
<path d="M9728 2343 c6 -2 18 -2 25 0 6 3 1 5 -13 5 -14 0 -19 -2 -12 -5z"/>
<path d="M10141 2345 c1 -19 18 -51 18 -35 0 8 -4 22 -9 30 -5 8 -9 11 -9 5z"/>
<path d="M10650 2346 c0 -2 8 -10 18 -17 15 -13 16 -12 3 4 -13 16 -21 21 -21
13z"/>
<path d="M9643 2333 c15 -2 37 -2 50 0 12 2 0 4 -28 4 -27 0 -38 -2 -22 -4z"/>
<path d="M9868 2333 c6 -2 18 -2 25 0 6 3 1 5 -13 5 -14 0 -19 -2 -12 -5z"/>
<path d="M10092 2230 c0 -14 2 -19 5 -12 2 6 2 18 0 25 -3 6 -5 1 -5 -13z"/>
<path d="M11068 2243 c23 -2 61 -2 85 0 23 2 4 4 -43 4 -47 0 -66 -2 -42 -4z"/>
<path d="M10973 2233 c9 -2 23 -2 30 0 6 3 -1 5 -18 5 -16 0 -22 -2 -12 -5z"/>
<path d="M11218 2233 c6 -2 18 -2 25 0 6 3 1 5 -13 5 -14 0 -19 -2 -12 -5z"/>
<path d="M11288 2233 c6 -2 18 -2 25 0 6 3 1 5 -13 5 -14 0 -19 -2 -12 -5z"/>
<path d="M11373 2223 c9 -2 23 -2 30 0 6 3 -1 5 -18 5 -16 0 -22 -2 -12 -5z"/>
<path d="M10888 2213 c7 -3 16 -2 19 1 4 3 -2 6 -13 5 -11 0 -14 -3 -6 -6z"/>
<path d="M11473 2213 c9 -2 23 -2 30 0 6 3 -1 5 -18 5 -16 0 -22 -2 -12 -5z"/>
<path d="M10830 2200 c-18 -12 -2 -12 25 0 13 6 15 9 5 9 -8 0 -22 -4 -30 -9z"/>
<path d="M11563 2203 c9 -2 25 -2 35 0 9 3 1 5 -18 5 -19 0 -27 -2 -17 -5z"/>
<path d="M11653 2193 c9 -2 25 -2 35 0 9 3 1 5 -18 5 -19 0 -27 -2 -17 -5z"/>
<path d="M10110 2176 c0 -2 8 -10 18 -17 15 -13 16 -12 3 4 -13 16 -21 21 -21
13z"/>
<path d="M10298 2113 c6 -2 18 -2 25 0 6 3 1 5 -13 5 -14 0 -19 -2 -12 -5z"/>
<path d="M10233 2103 c9 -2 23 -2 30 0 6 3 -1 5 -18 5 -16 0 -22 -2 -12 -5z"/>
<path d="M9350 1935 c0 -69 3 -85 15 -85 12 0 15 13 15 57 l0 58 41 -58 c58
-81 69 -77 69 28 0 69 -3 85 -15 85 -11 0 -15 -12 -15 -50 0 -27 -3 -50 -7
-50 -5 0 -23 23 -42 50 -50 74 -61 67 -61 -35z"/>
<path d="M9820 1935 c0 -67 3 -85 14 -85 11 0 16 14 18 48 3 39 6 47 23 47 17
0 20 -8 23 -47 2 -35 7 -48 18 -48 12 0 14 12 12 56 -3 66 -23 88 -58 66 -18
-11 -20 -10 -20 18 0 20 -5 30 -15 30 -12 0 -15 -16 -15 -85z"/>
<path d="M9537 1962 c-22 -25 -21 -75 1 -95 25 -23 65 -21 87 3 20 22 7 27
-26 9 -15 -7 -24 -7 -35 2 -25 20 -15 29 31 29 49 0 56 10 29 48 -19 27 -64
29 -87 4z m63 -17 c11 -13 8 -15 -20 -15 -28 0 -31 2 -20 15 7 8 16 15 20 15
4 0 13 -7 20 -15z"/>
<path d="M9670 1915 c0 -51 3 -65 15 -65 11 0 15 12 15 51 0 47 2 50 23 47 19
-3 22 -10 25 -50 2 -35 7 -48 18 -48 12 0 14 12 12 56 -3 66 -23 88 -58 66
-12 -7 -20 -8 -20 -2 0 5 -7 10 -15 10 -12 0 -15 -14 -15 -65z"/>
<path d="M9972 1924 c3 -66 23 -88 58 -66 12 7 20 8 20 2 0 -5 7 -10 15 -10
12 0 15 14 15 65 0 50 -3 65 -14 65 -11 0 -16 -14 -18 -47 -3 -40 -6 -48 -23
-48 -17 0 -20 8 -23 48 -2 34 -7 47 -18 47 -12 0 -14 -12 -12 -56z"/>
<path d="M10120 1915 c0 -51 3 -65 15 -65 11 0 15 12 15 50 0 43 3 50 20 50
17 0 20 -7 20 -50 0 -37 4 -50 14 -50 11 0 16 14 18 48 3 40 6 47 26 50 20 3
22 0 22 -47 0 -39 4 -51 15 -51 13 0 15 11 13 56 -3 65 -23 88 -58 67 -12 -8
-21 -9 -25 -3 -9 14 -52 12 -58 -2 -4 -10 -6 -10 -6 0 -1 6 -8 12 -16 12 -12
0 -15 -14 -15 -65z"/>
<path d="M10345 1967 c-13 -10 -15 -16 -6 -21 6 -4 18 -2 26 4 15 13 45 7 45
-8 0 -5 -17 -13 -37 -18 -33 -8 -38 -13 -38 -39 0 -24 5 -31 23 -33 13 -2 30
2 38 8 10 9 14 9 14 1 0 -6 7 -11 15 -11 19 0 21 100 3 118 -16 16 -60 15 -83
-1z m63 -69 c-6 -16 -36 -34 -44 -26 -3 4 -4 14 -1 23 7 17 51 21 45 3z"/>
<path d="M10530 1915 c0 -50 3 -65 14 -65 11 0 16 14 18 47 2 36 7 49 21 51
14 3 17 -4 17 -47 0 -44 3 -51 20 -51 17 0 20 7 20 50 0 43 3 50 20 50 17 0
20 -7 20 -50 0 -38 4 -50 15 -50 13 0 15 11 13 63 -3 57 -5 62 -27 65 -13 2
-28 -1 -33 -6 -7 -7 -17 -7 -29 1 -15 9 -24 9 -39 -1 -12 -7 -20 -8 -20 -2 0
5 -7 10 -15 10 -12 0 -15 -14 -15 -65z"/>
<path d="M10756 1958 c-46 -66 25 -141 90 -94 26 19 10 33 -20 17 -26 -15 -46
-8 -46 15 0 10 12 14 40 14 33 0 40 3 40 19 0 49 -76 70 -104 29z m58 -4 c27
-10 18 -24 -15 -24 -27 0 -30 2 -19 15 14 17 13 17 34 9z"/>
<path d="M10890 1915 c0 -50 3 -65 14 -65 11 0 16 14 18 48 3 40 6 47 26 50
20 3 22 0 22 -47 0 -44 3 -51 20 -51 17 0 20 7 20 46 0 25 -5 54 -10 65 -12
21 -50 25 -68 7 -9 -9 -12 -9 -12 0 0 7 -7 12 -15 12 -12 0 -15 -14 -15 -65z"/>
<path d="M11052 1968 c-7 -7 -12 -20 -12 -30 0 -17 8 -22 69 -44 11 -3 12 -7
3 -16 -9 -9 -18 -8 -37 2 -29 16 -43 7 -25 -15 16 -20 64 -19 84 1 19 19 21
43 4 49 -67 23 -71 26 -59 38 9 9 16 9 31 -1 25 -15 30 -15 30 2 0 26 -66 36
-88 14z"/>
<path d="M11193 1973 c-7 -2 -13 -12 -13 -20 0 -10 5 -13 18 -8 28 12 45 11
49 -2 3 -7 -10 -15 -32 -19 -72 -13 -57 -68 19 -70 l46 -2 0 52 c0 29 -5 57
-12 64 -12 12 -52 15 -75 5z m57 -78 c0 -21 -28 -31 -43 -16 -9 9 -8 14 3 21
22 14 40 12 40 -5z"/>
<path d="M11320 1961 c-30 -57 11 -127 59 -101 18 9 21 8 21 -9 0 -23 -25 -34
-50 -21 -25 13 -30 13 -30 -5 0 -19 46 -30 79 -19 25 9 26 13 29 92 2 68 0 82
-13 82 -8 0 -15 -5 -15 -12 0 -9 -3 -9 -12 0 -18 18 -56 14 -68 -7z m75 -46
c0 -25 -4 -30 -25 -30 -16 0 -26 6 -28 18 -6 30 6 49 30 45 18 -2 23 -9 23
-33z"/>
<path d="M11476 1958 c-46 -66 25 -141 90 -94 26 20 10 32 -21 16 -20 -11 -27
-11 -40 0 -26 21 -17 30 30 30 37 0 45 3 45 18 0 48 -76 70 -104 30z m58 -4
c27 -10 18 -24 -15 -24 -27 0 -30 2 -19 15 14 17 13 17 34 9z"/>
<path d="M11610 1915 c0 -50 3 -65 14 -65 11 0 16 14 18 48 3 39 6 47 23 47
17 0 20 -8 23 -47 2 -34 7 -48 18 -48 10 0 14 13 14 50 0 43 3 50 20 50 17 0
20 -7 20 -50 0 -43 3 -50 20 -50 17 0 20 7 20 46 0 25 -5 54 -10 65 -11 20
-54 26 -65 9 -4 -6 -13 -5 -25 3 -16 9 -24 9 -40 -1 -12 -7 -20 -8 -20 -2 0 5
-7 10 -15 10 -12 0 -15 -14 -15 -65z"/>
<path d="M11060 1698 c0 -25 -3 -29 -12 -20 -7 7 -21 12 -33 12 -32 0 -45 -19
-45 -65 0 -46 13 -65 45 -65 12 0 26 5 33 12 9 9 12 9 12 0 0 -7 7 -12 15 -12
12 0 15 16 15 85 0 69 -3 85 -15 85 -10 0 -15 -10 -15 -32z m-5 -58 c9 -28 -5
-51 -29 -48 -13 2 -22 12 -24 26 -7 46 39 65 53 22z"/>
<path d="M10650 1706 c0 -8 -6 -17 -12 -20 -10 -5 -10 -7 0 -12 7 -3 12 -24
12 -48 0 -45 13 -66 42 -66 22 0 24 18 3 26 -9 4 -15 19 -15 40 0 22 6 37 15
40 8 4 15 10 15 15 0 5 -7 9 -15 9 -8 0 -15 7 -15 15 0 8 -7 15 -15 15 -8 0
-15 -6 -15 -14z"/>
<path d="M9927 1672 c-22 -25 -21 -75 1 -95 25 -23 65 -21 87 3 20 22 7 27
-26 9 -15 -7 -24 -7 -35 2 -25 20 -15 29 31 29 49 0 56 10 29 48 -19 27 -64
29 -87 4z m63 -17 c11 -13 8 -15 -20 -15 -28 0 -31 2 -20 15 7 8 16 15 20 15
4 0 13 -7 20 -15z"/>
<path d="M10060 1625 c0 -51 3 -65 15 -65 11 0 15 12 15 51 0 47 2 50 23 47
19 -3 22 -10 25 -50 2 -35 7 -48 18 -48 12 0 14 12 12 56 -3 66 -23 88 -58 66
-12 -7 -20 -8 -20 -2 0 5 -7 10 -15 10 -12 0 -15 -14 -15 -65z"/>
<path d="M10216 1668 c-33 -46 -7 -108 44 -108 28 0 60 22 60 41 0 14 -22 11
-41 -6 -15 -14 -18 -14 -33 0 -9 9 -16 23 -16 30 0 7 7 21 16 30 15 14 18 14
33 0 34 -30 57 -12 25 19 -23 24 -70 20 -88 -6z"/>
<path d="M10356 1668 c-32 -45 -7 -108 42 -108 35 0 49 10 60 40 10 27 -1 69
-21 82 -24 15 -66 8 -81 -14z m62 -10 c16 -16 15 -53 -2 -67 -11 -9 -18 -8
-30 4 -19 19 -20 29 -6 56 12 22 21 24 38 7z"/>
<path d="M10490 1625 c0 -51 3 -65 15 -65 11 0 15 11 15 38 0 46 12 65 36 60
15 -2 20 -14 22 -51 2 -33 7 -47 18 -47 17 0 20 80 4 111 -12 21 -50 25 -68 7
-9 -9 -12 -9 -12 0 0 7 -7 12 -15 12 -12 0 -15 -14 -15 -65z"/>
<path d="M10740 1624 c0 -50 3 -64 15 -64 11 0 15 12 15 46 0 37 4 47 20 51
34 9 23 31 -15 31 l-35 0 0 -64z"/>
<path d="M10840 1675 c-17 -21 -4 -32 20 -17 26 16 40 15 40 -2 0 -8 -13 -17
-30 -21 -36 -8 -52 -32 -39 -57 11 -21 49 -24 67 -6 9 9 12 9 12 0 0 -7 7 -12
15 -12 21 0 21 93 -1 114 -20 20 -68 21 -84 1z m68 -67 c-6 -16 -36 -34 -44
-26 -3 4 -4 14 -1 23 7 17 51 21 45 3z"/>
<path d="M11135 1677 c-13 -10 -15 -16 -6 -21 6 -4 18 -2 26 4 15 13 45 7 45
-8 0 -5 -17 -13 -37 -18 -33 -8 -38 -13 -38 -39 0 -24 5 -31 23 -33 13 -2 30
2 38 8 10 9 14 9 14 1 0 -6 7 -11 15 -11 19 0 21 100 3 118 -16 16 -60 15 -83
-1z m63 -69 c-6 -16 -36 -34 -44 -26 -3 4 -4 14 -1 23 7 17 51 21 45 3z"/>
<path d="M9118 1323 c7 -3 16 -2 19 1 4 3 -2 6 -13 5 -11 0 -14 -3 -6 -6z"/>
<path d="M9578 1323 c7 -3 16 -2 19 1 4 3 -2 6 -13 5 -11 0 -14 -3 -6 -6z"/>
<path d="M9808 1323 c7 -3 16 -2 19 1 4 3 -2 6 -13 5 -11 0 -14 -3 -6 -6z"/>
<path d="M11538 1323 c7 -3 16 -2 19 1 4 3 -2 6 -13 5 -11 0 -14 -3 -6 -6z"/>
<path d="M11918 1323 c7 -3 16 -2 19 1 4 3 -2 6 -13 5 -11 0 -14 -3 -6 -6z"/>
<path d="M9178 1283 c12 -2 30 -2 40 0 9 3 -1 5 -23 4 -22 0 -30 -2 -17 -4z"/>
<path d="M9648 1283 c12 -2 30 -2 40 0 9 3 -1 5 -23 4 -22 0 -30 -2 -17 -4z"/>
<path d="M10198 1283 c12 -2 30 -2 40 0 9 3 -1 5 -23 4 -22 0 -30 -2 -17 -4z"/>
<path d="M10598 1283 c12 -2 30 -2 40 0 9 3 -1 5 -23 4 -22 0 -30 -2 -17 -4z"/>
<path d="M10838 1283 c12 -2 30 -2 40 0 9 3 -1 5 -23 4 -22 0 -30 -2 -17 -4z"/>
<path d="M11008 1283 c12 -2 30 -2 40 0 9 3 -1 5 -23 4 -22 0 -30 -2 -17 -4z"/>
<path d="M10558 1123 c7 -3 16 -2 19 1 4 3 -2 6 -13 5 -11 0 -14 -3 -6 -6z"/>
<path d="M10938 1123 c7 -3 16 -2 19 1 4 3 -2 6 -13 5 -11 0 -14 -3 -6 -6z"/>
<path d="M10118 1083 c12 -2 30 -2 40 0 9 3 -1 5 -23 4 -22 0 -30 -2 -17 -4z"/>
</g>
</svg>
